<?xml version="1.0" encoding="UTF-8"?>
<svg width="1200pt" height="1200pt" version="1.1" viewBox="0 0 1200 1200" xmlns="http://www.w3.org/2000/svg">
 <path d="m1142.8 1107.2c9.75 9.75 9.75 25.5 0 35.25-5.0156 5.0156-11.25 7.2656-17.766 7.2656s-12.75-2.4844-17.766-7.2656l-507.24-507.24-507.24 507.52c-5.0156 5.0156-11.25 7.2656-17.766 7.2656s-12.75-2.4844-17.766-7.2656c-9.75-9.75-9.75-25.5 0-35.25l507.24-507.24-507.24-507.52c-9.75-9.75-9.75-25.5 0-35.25s25.5-9.75 35.25 0l507.24 507.24 507.52-507.52c9.75-9.75 25.5-9.75 35.25 0s9.75 25.5 0 35.25l-507.24 507.24z"/>
</svg>
