<?xml version="1.0" encoding="UTF-8"?>
<svg width="1200pt" height="1200pt" version="1.1" viewBox="0 0 1200 1200" xmlns="http://www.w3.org/2000/svg">
 <path d="m840.41 395.99c-4.1758 0.39062-7.2422 4.0898-6.8477 8.2656 0.39062 4.1719 4.0898 7.2383 8.2656 6.8477h73.445l-175.94 226.22c-7.6719-4.3438-16.566-7.0859-25.977-7.0859-15.328 0-29.051 6.7578-38.73 17.238l-102.73-69.895c3.3633-6.9453 5.4336-14.699 5.4336-22.906 0-29.125-23.773-52.895-52.898-52.895s-52.898 23.773-52.898 52.895c0 11.102 3.3203 21.465 9.2109 29.988l-134.85 125.39c-9.0742-7.3047-20.559-11.809-33.062-11.809-29.125 0-52.898 23.773-52.898 52.895 0 29.121 23.773 52.895 52.898 52.895s52.898-23.773 52.898-52.895c0-11.16-3.5-21.438-9.4453-29.992l134.85-125.39c9.1133 7.4297 20.676 11.809 33.297 11.809 15.5 0 29.512-6.5469 39.203-17.238l102.26 69.66c-3.457 7.0273-5.4336 14.82-5.4336 23.148 0 29.125 23.773 52.895 52.898 52.895s52.898-23.773 52.898-52.895c0-14.211-5.6992-27.078-14.879-36.602l173.58-223.39v71.078c-0.027343 2.0234 0.75781 3.9727 2.1758 5.4141 1.4219 1.4414 3.3594 2.25 5.3828 2.25s3.9609-0.80859 5.3828-2.25c1.418-1.4414 2.2031-3.3906 2.1758-5.4141v-90.68c0-4.1719-3.3828-7.5547-7.5586-7.5547h-90.688 0.003906c-0.47266-0.042969-0.94922-0.042969-1.418 0zm-315.98 120.91c20.957 0 37.785 16.828 37.785 37.781 0 20.957-16.828 37.781-37.785 37.781-20.957 0-37.785-16.828-37.785-37.781 0-20.957 16.828-37.781 37.785-37.781zm188.93 128.46c20.957 0 37.785 16.824 37.785 37.781s-16.828 37.781-37.785 37.781-37.785-16.824-37.785-37.781 16.828-37.781 37.785-37.781zm-400.53 68.008c20.957 0 37.785 16.824 37.785 37.781 0 20.957-16.828 37.781-37.785 37.781s-37.785-16.824-37.785-37.781c0-20.957 16.828-37.781 37.785-37.781z"/>
</svg>
