  <svg
    width="42px"
    height="42px"
    version="1.1"
    viewBox="0 0 1200 1200"
    xmlns="http://www.w3.org/2000/svg"
  >
    <path
      fill="#000000"
      d="m839.47 380.84c-6.0156 0.3125-11.656 3-15.688 7.4766-4.0312 4.4727-6.1211 10.363-5.8086 16.375 0.31641 6.0156 3.0039 11.656 7.4766 15.688 4.4766 4.0312 10.367 6.1172 16.383 5.8047h42.508l-149.49 192.47c-6.7734-2.293-13.984-3.543-21.488-3.543-14.824 0-28.684 5.0352-39.91 13.223l-83.367-56.676c1.4141-5.4258 2.3633-11.168 2.3633-17.004 0-37.297-30.719-68.016-68.016-68.016-37.293 0-68.016 30.719-68.016 68.016 0 9.5117 2.0742 18.664 5.668 26.922l-117.84 109.34c-9.4062-4.9492-20.129-7.793-31.406-7.793-37.297 0-68.016 30.723-68.016 68.016s30.719 68.016 68.016 68.016c37.293 0 68.012-30.723 68.012-68.016 0-9.5859-2.0156-18.613-5.668-26.922l117.84-109.34c9.4141 4.957 20.125 7.793 31.41 7.793 15.008 0 29.078-4.8477 40.383-13.223l82.895 56.441c-1.4883 5.5547-2.3633 11.246-2.3633 17.238 0 37.297 30.719 68.016 68.016 68.016 37.293 0 68.016-30.719 68.016-68.016 0-13.496-3.9648-25.973-10.867-36.605l139.34-179.01v26.688c-0.085938 6.0664 2.2656 11.918 6.5273 16.238 4.2617 4.3203 10.074 6.7539 16.145 6.7539s11.887-2.4336 16.145-6.7539c4.2617-4.3203 6.6133-10.172 6.5273-16.238v-90.688c0-6.0117-2.3906-11.777-6.6406-16.031-4.2539-4.25-10.02-6.6406-16.031-6.6406h-90.684c-0.78906-0.039062-1.5781-0.039062-2.3633 0zm-315.04 151.14c12.789 0 22.672 9.8828 22.672 22.672 0 4.793-1.3672 9.3789-3.7773 12.988v0.23437c-4.0352 5.9336-10.965 9.4492-18.895 9.4492-12.789 0-22.672-9.8828-22.672-22.672 0-12.789 9.8828-22.672 22.672-22.672zm188.93 128.47c12.789 0 22.672 9.8828 22.672 22.672 0 12.793-9.8828 22.672-22.672 22.672s-22.672-9.8789-22.672-22.672c0-12.789 9.8828-22.672 22.672-22.672zm-400.53 68.016c12.789 0 22.668 9.8828 22.668 22.672 0 12.789-9.8789 22.672-22.668 22.672-12.793 0-22.672-9.8828-22.672-22.672 0-12.789 9.8789-22.672 22.672-22.672z"
    />
  </svg>